<?xml version="1.0" standalone="no"?>
<!DOCTYPE svg PUBLIC "-//W3C//DTD SVG 20010904//EN"
 "http://www.w3.org/TR/2001/REC-SVG-20010904/DTD/svg10.dtd">
<svg version="1.0" xmlns="http://www.w3.org/2000/svg"
 width="377.000000pt" height="380.000000pt" viewBox="0 0 377.000000 380.000000"
 preserveAspectRatio="xMidYMid meet">
<metadata>
Created by potrace 1.16, written by Peter Selinger 2001-2019
</metadata>
<g transform="translate(0.000000,380.000000) scale(0.100000,-0.100000)"
fill="#000000" stroke="none">
<path d="M1769 3632 c-68 -48 -288 -207 -489 -352 -569 -412 -693 -501 -875
-632 -239 -172 -253 -188 -199 -239 25 -24 30 -24 257 -31 300 -8 2647 -8
2924 1 l213 6 26 27 c42 42 29 67 -79 146 -50 37 -164 120 -252 184 -1508
1089 -1351 978 -1380 978 -13 0 -78 -40 -146 -88z m366 -179 c89 -65 381 -275
648 -468 l486 -350 1 -52 0 -53 -1355 0 -1355 0 0 53 1 52 486 350 c267 193
558 403 647 467 l161 117 58 1 59 0 163 -117z"/>
<path d="M1050 2180 c-59 -8 -86 -24 -107 -63 -17 -29 -18 -77 -18 -602 0
-526 1 -572 18 -602 27 -50 66 -65 168 -65 101 0 139 15 166 65 17 30 18 76
18 602 0 526 -1 572 -18 602 -9 18 -30 39 -45 46 -33 17 -121 25 -182 17z"/>
<path d="M2595 2180 c-64 -7 -90 -22 -112 -63 -17 -29 -18 -77 -18 -602 0
-526 1 -572 18 -602 27 -50 65 -65 166 -65 102 0 141 15 168 65 17 30 18 76
18 602 0 526 -1 572 -18 602 -9 18 -30 39 -45 46 -34 18 -112 25 -177 17z"/>
<path d="M1754 2164 c-16 -8 -39 -29 -50 -47 -18 -31 -19 -55 -19 -602 0 -548
1 -571 20 -602 29 -49 69 -63 175 -63 106 0 146 14 175 63 19 31 20 54 20 602
0 548 -1 571 -20 602 -10 18 -33 39 -51 48 -44 20 -207 20 -250 -1z"/>
<path d="M420 480 l0 -180 -180 0 -180 0 0 -150 0 -150 1855 0 1855 0 0 150 0
150 -220 0 -220 0 0 180 0 180 -1455 0 -1455 0 0 -180z m2760 -17 c0 -27 7
-73 15 -103 8 -30 15 -79 15 -107 l0 -53 -1335 0 -1335 0 0 53 c0 28 7 77 15
107 8 30 15 76 15 103 l0 47 1305 0 1305 0 0 -47z"/>
</g>
</svg>
