<?xml version="1.0" standalone="no"?>
<!DOCTYPE svg PUBLIC "-//W3C//DTD SVG 20010904//EN"
 "http://www.w3.org/TR/2001/REC-SVG-20010904/DTD/svg10.dtd">
<svg version="1.0" xmlns="http://www.w3.org/2000/svg"
 width="512.000000pt" height="512.000000pt" viewBox="0 0 512.000000 512.000000"
 preserveAspectRatio="xMidYMid meet">
<metadata>
Created by potrace 1.16, written by Peter Selinger 2001-2019
</metadata>
<g transform="translate(0.000000,512.000000) scale(0.100000,-0.100000)"
fill="#000000" stroke="none">
<path d="M3031 4994 c-24 -20 -32 -36 -37 -76 l-7 -50 -107 7 c-134 9 -202 -4
-254 -47 -61 -50 -76 -94 -76 -231 l0 -117 688 2 687 3 0 131 c0 125 -1 132
-27 171 -46 69 -97 87 -265 91 l-143 4 0 30 c0 36 -24 84 -49 98 -12 6 -95 10
-200 10 -178 0 -180 0 -210 -26z"/>
<path d="M1599 4677 c-27 -14 -57 -42 -76 -71 -32 -47 -33 -51 -33 -152 l0
-104 60 0 60 0 0 115 0 115 335 0 335 0 0 60 0 60 -318 0 c-314 0 -320 0 -363
-23z"/>
<path d="M4210 4640 l0 -60 335 0 335 0 0 -1815 0 -1815 -311 0 c-337 0 -364
-3 -424 -52 -73 -60 -75 -73 -75 -388 l0 -280 -1230 0 -1230 0 0 108 0 107
-60 -3 -60 -4 0 -90 c0 -62 5 -100 16 -124 25 -52 88 -101 146 -113 33 -8 550
-11 1614 -11 1392 0 1569 2 1602 16 49 20 90 60 113 109 18 39 19 118 19 2176
l0 2135 -25 51 c-16 32 -41 61 -67 79 l-41 29 -329 3 -328 3 0 -61z m648
-3824 l-3 -54 -300 -256 -300 -256 -52 0 -53 0 0 225 c0 181 3 233 15 263 28
65 81 108 155 123 19 4 149 7 288 8 l253 1 -3 -54z"/>
<path d="M1390 3850 c-159 -97 -232 -134 -356 -183 -173 -68 -370 -113 -616
-141 -139 -16 -183 -32 -234 -84 -50 -51 -64 -111 -64 -266 1 -823 286 -1501
820 -1948 185 -156 527 -358 603 -358 43 0 100 30 257 135 631 422 1014 1049
1129 1850 11 77 25 209 31 294 14 194 8 224 -64 297 -61 60 -84 67 -291 89
-82 9 -192 25 -244 36 -213 46 -448 147 -653 281 -152 99 -151 99 -318 -2z
m329 -81 c331 -207 575 -292 974 -338 110 -12 162 -22 168 -32 12 -19 11 -120
-1 -314 -46 -702 -259 -1242 -655 -1663 -141 -150 -352 -317 -531 -422 -60
-35 -77 -40 -130 -40 -55 0 -73 6 -169 55 -560 287 -915 741 -1069 1365 -60
245 -86 497 -86 842 0 183 4 198 60 198 57 0 278 32 390 57 243 53 486 152
700 285 127 78 123 76 185 77 45 1 61 -6 164 -70z"/>
<path d="M1370 2825 l0 -255 -255 0 -255 0 0 -170 0 -170 255 0 255 0 0 -255
0 -255 176 0 177 0 -5 255 -5 255 258 0 259 0 0 170 0 170 -260 0 -260 0 0
255 0 255 -170 0 -170 0 0 -255z"/>
<path d="M3259 3735 c17 -20 40 -53 51 -75 l20 -40 526 0 526 0 35 35 c34 34
34 34 16 61 -35 54 -36 54 -644 54 l-561 0 31 -35z"/>
<path d="M3380 3081 c0 -33 -3 -66 -6 -75 -6 -14 43 -16 501 -16 l507 0 35 35
c33 33 34 35 18 59 -37 56 -40 56 -569 56 l-486 0 0 -59z"/>
<path d="M3275 2358 c-11 -33 -35 -123 -35 -130 0 -4 250 -8 556 -8 605 0 602
0 639 56 16 24 15 26 -18 59 l-35 35 -551 0 c-432 0 -553 -3 -556 -12z"/>
<path d="M3012 1665 l-39 -75 689 0 c746 0 736 -1 771 54 18 27 18 27 -16 61
l-35 35 -665 0 -666 0 -39 -75z"/>
</g>
</svg>
