<?xml version="1.0" standalone="no"?>
<!DOCTYPE svg PUBLIC "-//W3C//DTD SVG 20010904//EN"
 "http://www.w3.org/TR/2001/REC-SVG-20010904/DTD/svg10.dtd">
<svg version="1.0" xmlns="http://www.w3.org/2000/svg"
 width="880.000000pt" height="749.000000pt" viewBox="0 0 880.000000 749.000000"
 preserveAspectRatio="xMidYMid meet">
<metadata>
Created by potrace 1.16, written by Peter Selinger 2001-2019
</metadata>
<g transform="translate(0.000000,749.000000) scale(0.100000,-0.100000)"
fill="#000000" stroke="none">
<path d="M4355 7044 c-84 -51 -195 -106 -462 -228 l-232 -106 -944 0 -943 0
-37 -38 -37 -38 -2 -629 -3 -630 -536 -270 c-677 -341 -720 -364 -739 -401
-13 -25 -15 -272 -18 -2000 l-3 -1970 45 -42 46 -42 3910 0 3910 0 46 42 45
42 -3 1970 c-3 1728 -5 1975 -18 2000 -20 38 -90 76 -745 405 l-530 266 -3
630 -2 629 -37 38 -37 38 -874 0 -873 0 -222 101 c-254 116 -387 181 -472 233
-84 50 -146 50 -230 0z m220 -289 l90 -43 -187 -1 c-104 -1 -188 1 -188 4 0 9
163 85 179 84 9 0 57 -20 106 -44z m2275 -1485 l0 -1190 -1214 -607 -1214
-607 -134 64 c-137 66 -1793 885 -2138 1057 l-195 98 -3 1188 -2 1187 2450 0
2450 0 0 -1190z m-5157 -342 c4 -83 7 -277 7 -430 0 -278 0 -279 -21 -273 -17
6 -694 335 -808 393 -19 9 -36 22 -38 28 -4 11 818 433 843 434 7 0 13 -52 17
-152z m5857 -58 c231 -116 420 -215 420 -220 0 -13 -847 -436 -855 -428 -11
11 -19 547 -10 711 4 81 11 147 17 147 5 0 198 -95 428 -210z m-6492 -624
c218 -107 831 -409 1362 -671 1481 -733 1962 -965 1997 -965 26 0 152 59 743
348 124 60 845 418 1603 796 758 377 1380 686 1383 686 2 0 3 -795 2 -1767
l-3 -1768 -3745 0 -3745 0 -3 1768 c-1 972 1 1767 4 1767 3 0 184 -87 402
-194z"/>
<path d="M2410 6047 c-34 -17 -70 -74 -70 -112 0 -20 12 -48 30 -73 l30 -42
2000 0 2000 0 30 42 c44 61 39 109 -18 171 l-26 27 -1975 0 c-1561 0 -1981 -3
-2001 -13z"/>
<path d="M2373 5368 c-50 -61 -40 -113 32 -177 l36 -31 1959 0 1959 0 36 31
c72 64 82 116 33 177 l-33 41 -1995 0 -1995 0 -32 -41z"/>
<path d="M2373 4728 c-44 -54 -45 -101 -2 -154 17 -21 36 -42 42 -46 16 -10
3958 -10 3974 0 6 4 25 25 42 46 43 53 42 100 -1 154 l-33 41 -1995 0 -1995 0
-32 -41z"/>
<path d="M3421 4121 c-105 -13 -144 -103 -81 -189 l30 -42 1030 0 1030 0 30
42 c43 59 41 97 -11 153 l-42 45 -966 -1 c-531 -1 -990 -5 -1020 -8z"/>
</g>
</svg>
