<svg version="1.1" id="Layer_1" xmlns="http://www.w3.org/2000/svg" xmlns:xlink="http://www.w3.org/1999/xlink" x="0px" y="0px"
	 width="100%" viewBox="0 0 256 256" enable-background="new 0 0 256 256" xml:space="preserve">
<path fill="#47704C" opacity="1.000000" stroke="none" 
	d="
M257.000000,68.000000 
	C257.000000,72.689255 257.000000,77.378510 256.723206,82.717957 
	C244.429047,95.299782 232.378754,107.198730 220.446335,119.214729 
	C219.282272,120.386925 218.844772,122.280594 218.070023,123.839371 
	C218.512253,124.132042 218.954468,124.424706 219.396698,124.717377 
	C220.815582,123.426949 222.279327,122.182167 223.646255,120.838875 
	C234.774399,109.902992 245.884445,98.948692 257.000000,88.000000 
	C257.000000,92.689255 257.000000,97.378510 256.723175,102.717896 
	C245.109879,114.410294 233.579956,125.270729 223.074860,137.094528 
	C223.708984,137.739456 224.343109,138.384399 224.977234,139.029343 
	C235.651489,128.686234 246.325745,118.343117 257.000000,108.000000 
	C257.000000,112.689255 257.000000,117.378510 256.723053,122.717743 
	C247.873184,132.147217 239.300262,140.926712 230.500580,149.852585 
	C229.841385,150.326294 229.408920,150.653625 228.957367,150.997772 
	C228.938278,151.014587 229.038589,151.042953 229.310699,150.967499 
	C230.085968,150.638458 230.589111,150.384857 231.411957,150.001312 
	C233.657501,148.618134 235.787796,147.591553 237.473083,146.071609 
	C244.058456,140.132446 250.503067,134.037216 257.000000,128.000000 
	C257.000000,139.354233 257.000000,150.708450 256.721863,162.716248 
	C250.461777,168.610916 250.311035,168.866608 251.279922,172.664261 
	C253.264984,171.045609 255.132492,169.522812 257.000000,168.000000 
	C257.000000,179.354233 257.000000,190.708450 256.721619,202.716537 
	C253.754211,205.794998 250.623398,207.960052 250.784088,213.098557 
	C253.278305,211.052689 255.139160,209.526337 257.000000,208.000000 
	C257.000000,212.689255 257.000000,217.378510 256.723206,222.717957 
	C245.297623,234.578766 234.148804,245.789383 223.000000,257.000000 
	C218.310745,257.000000 213.621490,257.000000 208.644104,256.730743 
	C209.749634,254.791290 211.143326,253.121094 212.537003,251.450912 
	C212.094254,250.981873 211.651505,250.512848 211.208755,250.043823 
	C208.472504,252.362549 205.736252,254.681274 203.000000,257.000000 
	C191.645767,257.000000 180.291550,257.000000 168.641968,256.735779 
	C169.514206,254.882996 170.681778,253.294479 172.473541,250.856720 
	C166.849197,250.897003 165.355759,254.561798 163.000000,257.000000 
	C158.310745,257.000000 153.621490,257.000000 148.650101,256.723175 
	C151.710815,252.778214 155.053680,249.110077 158.396530,245.441925 
	C157.922256,244.986374 157.447998,244.530807 156.973724,244.075241 
	C151.075638,246.918045 147.401428,252.388672 143.000000,257.000000 
	C138.310745,257.000000 133.621490,257.000000 128.650116,256.723145 
	C134.159164,249.328278 142.033646,243.996414 146.254349,235.429886 
	C137.525711,241.623169 130.109131,249.144714 123.000000,257.000000 
	C118.310745,257.000000 113.621490,257.000000 108.650116,256.723145 
	C117.255768,247.452805 126.171936,238.486984 135.000000,229.435226 
	C136.289856,228.112671 137.159744,226.380554 138.223953,224.837936 
	C137.558121,224.289841 136.892303,223.741745 136.226471,223.193649 
	C125.150986,234.462433 114.075493,245.731216 103.000000,257.000000 
	C98.310745,257.000000 93.621490,257.000000 88.650002,256.723083 
	C100.178833,244.449020 111.989899,232.451904 124.358070,219.888901 
	C119.273819,219.752121 95.210373,241.999435 83.000000,257.000000 
	C78.310745,257.000000 73.621490,257.000000 68.649994,256.723083 
	C80.178825,244.449020 91.989891,232.451889 104.358055,219.888901 
	C99.273819,219.752121 75.210426,241.999374 63.000000,257.000000 
	C58.310745,257.000000 53.621487,257.000000 48.650002,256.723083 
	C60.178833,244.449036 71.989891,232.451904 84.358025,219.888916 
	C79.273857,219.752090 55.210518,241.999283 43.000000,257.000000 
	C38.310745,257.000000 33.621490,257.000000 28.649998,256.723083 
	C40.178825,244.449036 51.989891,232.451889 64.358047,219.888901 
	C59.273849,219.752121 35.210396,241.999435 23.000000,257.000000 
	C18.310745,257.000000 13.621490,257.000000 8.649996,256.723083 
	C20.178827,244.449005 31.989901,232.451889 44.358047,219.888916 
	C39.273865,219.752106 15.210352,241.999451 2.999999,257.000000 
	C2.333331,256.533752 1.108685,256.090393 1.088434,255.597595 
	C0.929087,251.719818 1.000000,247.832581 1.276827,243.290100 
	C9.107799,235.174622 16.661943,227.717270 24.216087,220.259918 
	C23.671219,219.674210 23.126350,219.088486 22.581482,218.502777 
	C14.007061,223.335175 8.776443,232.204269 1.000000,238.000000 
	C1.000000,233.310745 1.000000,228.621490 1.276901,223.282288 
	C4.854871,219.278442 8.155940,215.924515 11.457008,212.570602 
	C10.850057,211.955200 10.243106,211.339813 9.636154,210.724411 
	C6.757435,213.149597 3.878715,215.574799 0.999998,218.000000 
	C1.000000,153.312439 1.000000,88.624878 1.276778,23.284576 
	C8.702371,15.421225 15.851186,8.210612 23.000000,1.000000 
	C27.689257,1.000000 32.378513,1.000000 37.349571,1.276614 
	C30.884340,8.490144 24.137302,15.427058 17.390265,22.363974 
	C17.738817,22.728802 18.087370,23.093630 18.435921,23.458460 
	C28.570807,18.211138 35.143478,8.867373 43.000000,1.000000 
	C47.689255,1.000000 52.378513,1.000000 57.349586,1.276624 
	C51.834682,7.553734 46.037960,13.554220 40.241241,19.554707 
	C40.711422,20.060669 41.181599,20.566631 41.651779,21.072594 
	C50.813324,16.768200 54.489155,6.063573 63.000000,1.000000 
	C67.689255,1.000000 72.378510,1.000000 77.348923,1.277347 
	C75.719154,4.757846 71.122154,6.410618 71.322952,10.832657 
	C71.762466,11.177067 72.201973,11.521477 72.641479,11.865887 
	C76.094322,8.243924 79.547157,4.621963 83.000000,1.000000 
	C87.689255,1.000000 92.378510,1.000000 97.349884,1.276839 
	C90.266670,9.026689 82.848106,16.448566 75.579109,24.014139 
	C74.052353,25.603189 73.075470,27.720562 71.845207,29.594486 
	C72.320107,29.951403 72.795013,30.308319 73.269920,30.665237 
	C76.186378,28.103371 79.102837,25.541504 82.016106,23.449018 
	C82.008728,26.250704 81.993095,28.583055 82.002457,30.915306 
	C82.034470,38.895061 82.107796,38.982075 90.147430,38.994030 
	C108.805878,39.021786 127.464462,39.067974 146.122665,39.006783 
	C148.864380,38.997791 150.746231,39.449917 151.899979,42.382641 
	C153.371338,46.122742 156.983566,47.910496 160.444244,46.628860 
	C163.133026,45.633095 166.789581,42.644619 166.972534,40.303947 
	C167.678986,31.265852 167.534180,22.108490 166.949570,13.044395 
	C166.656189,8.495577 162.811310,6.258672 158.361420,6.372674 
	C153.952133,6.485635 151.341949,9.842451 151.031509,14.903734 
	C150.601257,21.918383 150.574219,21.894505 143.358917,22.005514 
	C122.898834,22.320307 102.439400,22.678249 82.113777,22.713482 
	C89.165230,15.271846 96.082619,8.135924 103.000000,1.000001 
	C107.689255,1.000000 112.378510,1.000000 117.350006,1.276928 
	C112.005241,7.408458 106.378235,13.263061 100.751236,19.117662 
	C101.224594,19.601997 101.697952,20.086334 102.171303,20.570669 
	C110.465492,15.596108 116.375748,7.888824 123.000000,1.000000 
	C127.689255,1.000000 132.378510,1.000000 137.350006,1.276925 
	C132.164169,7.254220 126.696091,12.954591 121.228004,18.654963 
	C121.707237,19.140705 122.186462,19.626448 122.665695,20.112190 
	C130.822311,15.319203 136.512009,7.702762 143.000000,1.000000 
	C154.354233,1.000000 165.708450,1.000000 177.346954,1.276706 
	C175.272156,5.315356 170.243378,7.269839 169.474457,12.108359 
	C169.979797,12.557953 170.485138,13.007546 170.990463,13.457141 
	C174.993652,9.304763 178.996826,5.152384 183.000000,1.000003 
	C187.689255,1.000000 192.378510,1.000000 197.350006,1.276925 
	C191.830109,7.566336 186.027954,13.578821 180.225800,19.591307 
	C180.678680,20.068331 181.131546,20.545357 181.584427,21.022381 
	C190.238022,16.103184 196.131638,7.987067 203.000000,1.000000 
	C207.689255,1.000000 212.378510,1.000000 217.349884,1.276842 
	C211.442261,7.975513 205.252518,14.397341 199.062775,20.819168 
	C199.589890,21.351707 200.117004,21.884245 200.644119,22.416784 
	C209.304169,16.635317 215.831009,8.456885 223.000000,1.000000 
	C227.689255,1.000000 232.378510,1.000000 237.349884,1.276841 
	C230.040939,9.250938 222.417816,16.917074 214.889740,24.675447 
	C213.603745,26.000795 212.724213,27.720537 211.656906,29.258081 
	C212.320892,29.807085 212.984894,30.356091 213.648880,30.905094 
	C223.432587,20.936729 233.216293,10.968366 243.000000,1.000001 
	C247.666672,1.333335 252.333328,1.666668 256.723175,2.684019 
	C244.189346,15.532396 231.905502,27.670057 219.723999,39.909573 
	C218.700882,40.937561 218.365265,42.649799 217.710251,44.044144 
	C218.144653,44.340294 218.579041,44.636448 219.013443,44.932602 
	C220.441391,43.689026 221.937744,42.515121 223.286545,41.190914 
	C234.539734,30.142941 245.765778,19.067297 257.000000,8.000000 
	C257.000000,12.689256 257.000000,17.378511 256.723206,22.717960 
	C244.429337,35.299480 232.379318,47.198143 220.447144,59.213806 
	C219.283157,60.385948 218.845520,62.279404 218.070709,63.838039 
	C218.517960,64.126343 218.965210,64.414642 219.412460,64.702942 
	C220.826355,63.417065 222.284973,62.176701 223.647064,60.838120 
	C234.774902,49.902443 245.884705,38.948433 257.000000,28.000000 
	C257.000000,32.689255 257.000000,37.378513 256.723206,42.717957 
	C244.429321,55.299477 232.379333,67.198143 220.447144,79.213814 
	C219.283157,80.385956 218.845520,82.279419 218.070740,83.838066 
	C218.517975,84.126358 218.965225,84.414658 219.412460,84.702957 
	C220.826355,83.417076 222.284958,82.176704 223.647064,80.838112 
	C234.774902,69.902435 245.884705,58.948433 257.000000,48.000000 
	C257.000000,52.689255 257.000000,57.378513 256.723206,62.717964 
	C244.429337,75.299492 232.379333,87.198151 220.447128,99.213814 
	C219.283142,100.385956 218.845505,102.279411 218.070709,103.838043 
	C218.517960,104.126328 218.965195,104.414619 219.412430,104.702911 
	C220.826324,103.417038 222.284973,102.176697 223.647079,100.838127 
	C234.774902,89.902451 245.884720,78.948433 257.000000,68.000000 
M166.795303,134.003738 
	C171.418900,133.583450 174.131897,130.730255 176.569504,127.526367 
	C176.064636,126.923302 175.559769,126.320236 175.054916,125.717163 
	C172.029037,128.472046 169.003159,131.226929 165.938187,134.014984 
	C165.938187,134.014984 166.035980,134.040695 166.795303,134.003738 
M172.209946,150.024078 
	C162.891617,154.568176 156.716675,162.518219 150.452744,170.319916 
	C149.501938,171.504135 149.435150,173.398117 148.918900,174.997055 
	C148.918900,174.997055 149.018753,175.023254 149.566360,174.646149 
	C157.466431,166.526505 165.366501,158.406845 173.391266,150.156296 
	C173.229584,150.059738 173.067886,149.963165 172.209946,150.024078 
M233.433472,206.353546 
	C224.122833,215.718964 214.812210,225.084396 205.501572,234.449814 
	C205.745560,234.799835 205.989548,235.149857 206.233536,235.499863 
	C208.544266,234.100510 211.182022,233.048340 213.104843,231.237183 
	C219.036423,225.650024 224.886032,219.946152 230.354004,213.912857 
	C232.214600,211.859894 232.847107,208.693909 234.081284,206.003067 
	C234.081284,206.003067 233.981155,205.976501 233.433472,206.353546 
M126.463020,154.302948 
	C116.414520,153.981079 106.360626,153.406097 96.323540,153.619873 
	C94.877045,153.650681 92.575722,157.359497 92.299263,159.569992 
	C91.686401,164.470184 91.910515,169.510162 92.169067,174.473572 
	C92.391479,178.743103 94.788017,181.070129 99.305618,180.988571 
	C104.116333,180.901733 108.930168,180.996628 113.742645,180.997238 
	C123.768387,180.998505 123.747765,180.989243 126.149742,171.457535 
	C126.675568,169.370941 127.868591,167.351364 127.938187,165.273575 
	C128.055222,161.779282 127.518166,158.263092 128.016907,154.558090 
	C134.259186,148.923538 140.516724,143.305618 146.715698,137.623825 
	C147.228256,137.154037 147.344009,136.251328 147.644119,135.549759 
	C145.519043,135.337021 143.866806,135.827423 142.736877,136.879028 
	C139.082779,140.279755 135.469299,143.751205 132.142395,147.466080 
	C130.209610,149.624252 128.855637,152.300781 126.463020,154.302948 
M39.288307,107.490562 
	C38.985897,114.392700 38.245117,121.314980 38.560940,128.188705 
	C38.725643,131.773422 42.024261,133.806900 45.741421,133.870499 
	C53.218670,133.998398 60.703396,134.054703 68.177521,133.856766 
	C72.381172,133.745438 75.011665,131.582870 74.969833,126.972923 
	C74.924576,121.986519 74.974541,116.999329 74.955353,112.012589 
	C74.937157,107.284706 72.479607,105.029114 67.811249,105.029381 
	C62.325607,105.029694 56.828697,104.789902 51.358135,105.071381 
	C47.453392,105.272293 43.584042,106.161072 39.953636,105.966530 
	C46.381203,99.066124 52.809219,92.166145 59.236019,85.265030 
	C60.877804,83.502083 62.515743,81.735550 64.155441,79.970657 
	C63.868980,79.558189 63.582520,79.145721 63.296055,78.733253 
	C61.695347,79.516228 59.752617,79.951309 58.547230,81.136375 
	C47.408524,92.087280 36.361538,103.132629 25.401722,114.262611 
	C24.258232,115.423851 23.850124,117.309227 23.100819,118.858627 
	C23.549679,119.131126 23.998541,119.403625 24.447403,119.676125 
	C26.219866,118.029762 27.926617,116.304886 29.779261,114.754318 
	C33.051155,112.015923 36.411949,109.383736 39.288307,107.490562 
M183.332794,177.848648 
	C179.749496,175.173599 176.407654,172.037308 172.495926,169.989700 
	C169.992172,168.679092 166.647003,168.975906 163.679062,168.552109 
	C163.457993,171.510529 163.165802,174.466507 163.064545,177.429016 
	C163.038376,178.194565 163.523102,179.029541 163.922592,179.749741 
	C168.513336,188.025757 172.746567,196.533478 177.844620,204.486099 
	C183.934982,213.986664 191.914352,214.609497 199.783890,206.659409 
	C207.626022,198.737000 215.373627,190.711746 222.920578,182.508850 
	C231.810989,172.845749 240.630219,163.101120 249.042877,153.026566 
	C250.990021,150.694763 252.932373,145.729614 251.794998,143.981934 
	C249.178162,139.960953 245.763702,144.226761 242.692978,145.234467 
	C242.386642,145.334991 242.118362,145.569565 241.850418,145.766418 
	C226.702286,156.895447 211.444611,167.879837 196.459045,179.223709 
	C189.498322,184.492859 189.544952,184.791824 184.662338,177.815994 
	C185.976379,177.148895 187.556595,176.754028 188.561951,175.771179 
	C195.948273,168.550049 203.240997,161.232376 210.490875,153.873825 
	C211.144104,153.210815 211.286758,152.044739 211.690994,151.052231 
	C210.820847,150.797043 210.326340,150.528778 210.219711,150.638275 
	C201.503418,159.587891 192.816757,168.566345 184.136322,177.550812 
	C184.035141,177.655533 184.043198,177.865799 183.332794,177.848648 
M156.426544,224.676971 
	C155.037369,223.248215 153.453949,221.961578 152.288727,220.368973 
	C138.983643,202.183807 140.036697,178.068375 154.863831,159.791367 
	C167.003525,144.827087 191.696884,139.563156 210.667831,147.895538 
	C218.603409,151.380966 221.232300,150.642441 226.565475,143.429489 
	C209.677490,128.412796 172.795273,125.485703 149.050751,148.789062 
	C126.926971,170.501801 125.075462,207.489273 145.452667,230.912537 
	C167.509460,256.266479 204.888443,259.539581 230.590225,237.587112 
	C251.975571,219.321411 256.652679,190.465759 246.738663,172.050079 
	C241.539307,174.886353 238.043137,180.176620 238.614548,184.343185 
	C241.622116,206.273407 230.195312,226.887375 209.999847,235.964203 
	C192.090088,244.013718 168.580368,239.152710 157.662445,224.817032 
	C163.511261,222.508163 175.516525,209.834473 175.295166,204.801682 
	C172.597061,207.264771 170.307053,208.994385 168.463608,211.112640 
	C164.519928,215.644180 160.807251,220.376770 156.426544,224.676971 
M51.500000,76.999542 
	C98.494026,76.997993 145.488052,76.996323 192.482086,76.995049 
	C198.959000,76.994873 198.977463,76.995743 198.990952,83.695015 
	C199.009415,92.860451 198.996277,102.025955 198.996948,111.191429 
	C198.997757,121.976341 198.997879,121.976334 209.524445,124.966316 
	C215.827438,126.756630 215.981644,126.678284 215.988510,120.104538 
	C216.012558,97.107559 216.017029,74.110527 215.994308,51.113541 
	C215.975693,32.270870 206.598663,22.957954 187.760742,23.001831 
	C179.067795,23.022078 178.960190,23.126291 179.000824,31.485403 
	C179.035889,38.694263 179.272369,38.916019 186.725891,39.008423 
	C188.557159,39.031124 190.765594,38.499947 192.135910,39.326038 
	C194.628952,40.828957 198.151093,42.907970 198.524933,45.191677 
	C199.446396,50.820415 198.826813,56.701427 198.826813,63.210144 
	C192.126709,63.210144 185.881256,63.185371 179.636154,63.221340 
	C176.816620,63.237576 173.998215,63.415798 171.178513,63.446579 
	C167.709595,63.484440 164.239838,63.445576 160.770447,63.438984 
	C157.624603,63.433002 154.478729,63.415474 151.332901,63.421974 
	C147.863480,63.429142 144.394104,63.462040 140.924683,63.476013 
	C137.617020,63.489338 134.309341,63.493797 131.001663,63.500156 
	C127.694069,63.506512 124.386024,63.546627 121.079025,63.504623 
	C118.095993,63.466732 115.112442,63.225315 112.132034,63.269581 
	C102.374924,63.414497 92.618668,63.825005 82.862968,63.799084 
	C73.107864,63.773167 63.353615,63.142643 53.599369,63.152428 
	C44.511143,63.161541 35.422050,63.851688 26.336655,63.785698 
	C24.600517,63.773087 21.553215,61.793793 21.393272,60.450157 
	C20.848164,55.870831 20.949282,51.124641 21.508915,46.527996 
	C22.119606,41.511967 25.611649,39.119766 30.597977,39.064178 
	C36.429672,38.999172 42.280777,38.775795 48.084587,39.179707 
	C50.012009,39.313850 52.497803,40.730984 53.547241,42.334515 
	C56.131485,46.283230 59.513664,47.572384 63.805023,46.672905 
	C67.836678,45.827850 69.598320,42.497208 69.750336,38.916393 
	C70.089188,30.934729 70.136360,22.914770 69.749939,14.937177 
	C69.484970,9.466727 65.803490,6.664434 60.796467,7.109373 
	C56.429699,7.497416 53.192822,11.350997 53.093655,17.171993 
	C53.020496,21.466091 51.352722,23.182108 47.093128,23.031580 
	C41.767353,22.843372 36.382549,23.455162 31.105766,22.915129 
	C15.548762,21.323004 4.812223,35.847145 4.892640,49.251110 
	C5.175568,96.409935 4.968533,143.571518 5.021276,190.731995 
	C5.039311,206.858627 15.183954,216.971863 31.193871,216.988235 
	C60.856640,217.018570 90.519463,217.000443 120.182266,216.988815 
	C121.845444,216.988159 123.570442,217.105515 125.147575,216.702209 
	C126.033974,216.475525 127.436043,215.112503 127.306999,214.570831 
	C126.349121,210.550049 125.858170,206.036194 123.573837,202.862427 
	C122.289627,201.078201 117.876747,201.087250 114.869713,201.073166 
	C87.540527,200.945160 60.210407,201.036072 32.880859,200.957672 
	C24.318918,200.933121 21.171848,197.675797 21.029930,189.104919 
	C20.944412,183.940262 20.999819,178.773209 20.999876,173.607224 
	C21.000219,143.277847 21.059385,112.948250 20.938835,82.619354 
	C20.922335,78.467972 21.851889,76.631668 26.508835,76.868973 
	C34.487396,77.275543 42.501068,76.993111 51.500000,76.999542 
M44.151974,153.139587 
	C39.758739,153.814804 37.988201,156.569000 38.027756,160.803055 
	C38.069614,165.284058 37.916157,169.772964 38.133579,174.244522 
	C38.347515,178.644348 40.852329,181.602585 45.247921,181.782761 
	C53.034603,182.101929 60.849674,182.057388 68.640877,181.800812 
	C72.629143,181.669464 75.013824,179.339081 74.970589,175.021118 
	C74.922394,170.207962 75.056297,165.391937 74.950554,160.580688 
	C74.826157,154.920425 73.046761,153.107376 67.446083,153.044525 
	C59.977821,152.960678 52.507576,153.053635 44.151974,153.139587 
M98.144699,105.138893 
	C94.714630,105.758751 92.141594,107.303711 92.093704,111.215218 
	C92.028557,116.536804 91.970337,121.863129 92.123734,127.181236 
	C92.242340,131.293365 94.561966,133.770630 98.692154,133.855484 
	C106.339516,134.012543 114.006126,134.156631 121.638321,133.776367 
	C126.107483,133.553711 128.969910,130.870636 128.965775,125.967262 
	C128.962128,121.642189 129.071655,117.313965 128.941986,112.992813 
	C128.772369,107.340263 126.651917,105.165894 120.989456,105.066193 
	C113.672691,104.937386 106.351555,105.057404 98.144699,105.138893 
M171.865341,125.250351 
	C182.474670,122.798630 182.788010,122.334747 181.953796,112.102776 
	C181.600250,107.766510 179.471909,105.197708 175.082443,105.116737 
	C167.422699,104.975464 159.757462,104.990608 152.096756,105.098480 
	C147.751694,105.159660 145.235962,107.530716 145.106979,111.922905 
	C144.960342,116.915588 144.859039,121.926804 145.120407,126.909904 
	C145.444107,133.080872 149.641403,135.217010 155.157791,132.560455 
	C160.391815,130.039871 165.780212,127.839897 171.865341,125.250351 
M233.815125,185.852554 
	C217.126343,202.479446 200.437546,219.106323 183.748764,235.733200 
	C184.298325,236.384628 184.847900,237.036041 185.397461,237.687469 
	C187.083878,236.471619 188.968826,235.455750 190.425995,234.009003 
	C204.692902,219.844040 218.896454,205.615158 233.089569,191.376099 
	C234.250717,190.211182 235.303329,188.897949 236.142944,187.495865 
	C236.269135,187.285126 234.944458,186.205597 233.815125,185.852554 
M159.969864,84.530396 
	C161.372772,83.014015 162.775681,81.497635 164.584534,79.542480 
	C158.366669,79.413055 131.614487,106.117798 131.984772,112.410294 
	C141.514832,102.916420 150.497696,93.967682 159.969864,84.530396 
M130.849014,129.383926 
	C128.926987,131.386398 127.086807,133.475983 125.066765,135.374161 
	C120.078827,140.061157 115.008415,144.660400 109.126427,150.072128 
	C116.065285,150.311569 142.597412,123.573601 141.807831,117.685669 
	C137.981491,121.692131 134.599655,125.233170 130.849014,129.383926 
M85.502350,158.996872 
	C92.639725,151.848328 99.777100,144.699799 107.790619,136.673737 
	C100.838089,136.940613 77.697639,160.289627 77.904816,166.209641 
	C80.581383,163.678085 82.792816,161.586472 85.502350,158.996872 
M92.499992,91.999992 
	C96.430084,88.042839 100.360168,84.085678 104.812019,79.603165 
	C98.424583,79.365051 75.655823,102.040291 76.934898,107.513229 
	C82.215012,102.251289 87.107506,97.375641 92.499992,91.999992 
M64.202110,198.676041 
	C71.349159,195.272385 89.469452,175.556656 88.934685,171.645584 
	C88.465042,171.806427 87.891716,171.832016 87.589180,172.131332 
	C79.585030,180.050110 71.586510,187.975174 63.686939,195.997528 
	C63.243347,196.448029 63.654205,197.739899 64.202110,198.676041 
M133.999985,90.500008 
	C137.436234,87.033478 140.872482,83.566940 144.308716,80.100403 
	C143.776642,79.556633 143.244553,79.012863 142.712479,78.469093 
	C133.120880,84.572304 126.415543,93.840965 118.676331,102.026512 
	C125.811501,101.208694 128.636429,94.753021 133.999985,90.500008 
M171.500336,87.999687 
	C167.040680,92.511147 162.581009,97.022614 157.371140,102.292999 
	C162.794647,102.121758 180.607254,85.692596 183.902298,78.882347 
	C177.927704,79.511177 175.728119,84.610085 171.500336,87.999687 
M121.208542,79.256653 
	C112.672310,85.861145 105.782700,94.043060 98.545387,101.999031 
	C99.868065,102.553123 100.935059,102.758087 101.387169,102.323448 
	C108.782562,95.213890 116.101196,88.024445 123.364960,80.780640 
	C123.378113,80.767517 122.319107,79.679276 121.208542,79.256653 
M64.981758,99.508965 
	C71.432739,93.050629 77.883713,86.592293 85.094597,79.373184 
	C79.409325,79.559547 60.774689,96.913795 58.511002,103.780014 
	C61.162434,102.100365 62.820023,101.050293 64.981758,99.508965 
M44.797886,136.323975 
	C36.004436,142.275009 29.007612,149.876373 22.054377,159.030045 
	C24.145506,159.188400 24.606121,159.360931 24.755838,159.214844 
	C31.750944,152.389374 38.737579,145.554672 45.632698,138.628952 
	C45.961079,138.299103 45.451801,137.135315 44.797886,136.323975 
M176.091080,163.409744 
	C175.130646,164.714676 174.170212,166.019592 172.771027,167.920609 
	C177.557541,167.459808 193.699097,152.251404 196.311157,146.519821 
	C195.395172,146.519821 194.318359,146.186829 193.904404,146.569992 
	C188.072449,151.968018 182.330658,157.463440 176.091080,163.409744 
M63.543949,55.955715 
	C62.316982,57.340755 61.090015,58.725792 59.370983,60.666290 
	C64.976334,60.373814 80.571243,45.621979 81.080650,39.980232 
	C74.565399,44.159348 69.645416,50.224796 63.543949,55.955715 
M126.482704,57.998901 
	C131.763153,52.702103 137.043594,47.405304 142.324051,42.108505 
	C141.834976,41.618523 141.345901,41.128540 140.856827,40.638561 
	C132.171280,45.223156 126.811813,53.468639 119.778603,59.871902 
	C120.146698,60.390686 120.514793,60.909473 120.882896,61.428261 
	C122.580513,60.446949 124.278122,59.465641 126.482704,57.998901 
M114.999512,49.502304 
	C117.426025,47.020073 119.852547,44.537838 122.279060,42.055607 
	C121.793854,41.576244 121.308647,41.096886 120.823448,40.617523 
	C112.204163,45.286865 106.773323,53.430939 100.293152,60.475380 
	C107.077728,59.643353 109.920448,53.672131 114.999512,49.502304 
M98.654495,41.491093 
	C92.481422,47.765297 86.308350,54.039505 80.135277,60.313713 
	C80.471542,60.662846 80.807816,61.011982 81.144081,61.361115 
	C89.824028,56.768108 95.195885,48.543186 102.213081,42.124664 
	C101.990669,41.784824 101.768250,41.444988 101.545837,41.105148 
	C100.769737,41.156166 99.993629,41.207188 98.654495,41.491093 
M168.500244,50.999779 
	C165.567062,53.967964 162.633881,56.936150 159.700714,59.904335 
	C160.170288,60.381985 160.639877,60.859631 161.109451,61.337280 
	C169.704590,56.955891 174.878235,48.781555 181.263824,41.876373 
	C175.314240,42.194691 172.904251,47.399525 168.500244,50.999779 
M31.502693,92.997299 
	C35.744595,88.692047 39.986500,84.386795 44.687901,79.615189 
	C38.520172,79.339394 23.689018,94.028320 23.904036,100.211052 
	C26.581604,97.678574 28.793102,95.586914 31.502693,92.997299 
M83.502289,140.999542 
	C85.835342,137.955536 90.070107,136.163971 90.514206,131.875931 
	C89.703697,131.145035 88.893181,130.414154 88.082664,129.683273 
	C81.949753,136.130447 75.816841,142.577621 69.683929,149.024796 
	C70.246346,149.668121 70.808762,150.311447 71.371178,150.954788 
	C76.582176,149.692169 79.136627,144.668701 83.502289,140.999542 
M157.508759,206.993195 
	C167.915802,196.585556 167.915802,196.585556 167.264420,192.382034 
	C160.889282,199.023727 153.997391,204.155380 149.421249,211.380722 
	C149.954773,211.911865 150.488297,212.443024 151.021805,212.974167 
	C153.019028,211.145493 155.016251,209.316803 157.508759,206.993195 
M171.605072,227.903488 
	C170.760422,229.109711 169.915771,230.315918 169.071136,231.522141 
	C169.598206,231.994843 170.125275,232.467545 170.652344,232.940247 
	C177.456192,227.946213 182.878281,221.468964 188.151978,214.768463 
	C180.856125,216.551712 177.325226,223.089584 171.605072,227.903488 
M195.392105,88.940521 
	C195.808563,87.608101 196.225021,86.275681 196.641464,84.943260 
	C196.182434,84.696251 195.723389,84.449242 195.264343,84.202232 
	C189.430862,90.153984 183.597382,96.105743 177.763885,102.057495 
	C178.264145,102.573715 178.764404,103.089935 179.264664,103.606148 
	C185.778488,100.434837 189.669449,94.114967 195.392105,88.940521 
M33.509617,45.991192 
	C30.238773,50.332111 24.282307,52.741268 23.365223,58.529228 
	C29.271730,52.968189 35.206158,47.380859 41.140583,41.793533 
	C40.865059,41.445408 40.589531,41.097286 40.314007,40.749161 
	C38.213432,42.329105 36.112858,43.909050 33.509617,45.991192 
M153.005920,191.495773 
	C155.798492,187.939087 160.508057,185.761383 161.771179,180.218719 
	C155.256653,182.319031 145.466202,193.397873 146.215668,197.904709 
	C148.486465,195.771606 150.497772,193.882248 153.005920,191.495773 
M195.375122,45.259876 
	C190.088013,50.056011 184.800919,54.852146 178.557343,60.515923 
	C184.928894,60.518349 195.766998,50.454494 196.207901,45.778183 
	C196.217575,45.675594 195.983597,45.550037 195.375122,45.259876 
M118.223114,186.230530 
	C118.482880,185.380493 118.742638,184.530472 119.002396,183.680435 
	C118.066444,183.727386 116.730530,183.389099 116.256668,183.881104 
	C111.721596,188.589691 107.332222,193.438599 102.211182,198.995926 
	C109.937386,197.113922 112.836746,190.540375 118.223114,186.230530 
M87.971153,196.482498 
	C91.947502,192.484238 95.923851,188.485992 100.726074,183.657318 
	C94.905518,183.913651 84.434204,193.500061 82.807457,199.245850 
	C84.716721,198.302948 86.088707,197.625381 87.971153,196.482498 
M48.507511,190.993454 
	C46.415066,193.206772 44.322620,195.420105 41.753750,198.137360 
	C46.838097,198.230774 56.040565,190.117218 58.059296,184.737915 
	C57.752171,184.353348 57.445042,183.968781 57.137917,183.584213 
	C54.427605,185.887375 51.717293,188.190536 48.507511,190.993454 
M56.507504,142.993454 
	C54.415062,145.206772 52.322620,147.420105 49.753773,150.137360 
	C54.838089,150.230789 64.040489,142.117294 66.059296,136.737930 
	C65.752159,136.353363 65.445030,135.968781 65.137894,135.584213 
	C62.427589,137.887375 59.717289,140.190552 56.507504,142.993454 
M35.360401,184.151123 
	C31.923185,188.061096 27.327198,191.048950 25.543226,196.344421 
	C31.905642,193.529007 36.235592,188.706558 40.103321,183.406143 
	C39.811810,182.966965 39.520294,182.527786 39.228783,182.088608 
	C38.093212,182.630753 36.957642,183.172913 35.360401,184.151123 
M45.467602,58.952290 
	C48.727676,55.315758 53.128372,52.567898 55.285290,48.071888 
	C54.689274,47.523026 54.093262,46.974159 53.497246,46.425297 
	C48.899269,50.887959 44.301292,55.350616 39.703316,59.813274 
	C40.048500,60.301689 40.393684,60.790108 40.738865,61.278522 
	C42.142464,60.652683 43.546062,60.026844 45.467602,58.952290 
M148.987137,55.514786 
	C151.016342,53.360813 153.045547,51.206841 155.836014,48.244793 
	C150.569031,48.387245 142.740463,55.377331 140.427902,60.582340 
	C140.699036,60.965340 140.970169,61.348339 141.241302,61.731339 
	C143.656952,59.825169 146.072601,57.918999 148.987137,55.514786 
M87.646172,112.058517 
	C84.094772,116.215744 78.384125,118.777145 77.293182,124.752823 
	C78.114357,125.519371 78.935524,126.285912 79.756691,127.052460 
	C82.861244,123.030159 86.048340,119.066010 88.972290,114.916451 
	C89.364777,114.359451 88.429443,112.866829 87.646172,112.058517 
M24.203520,135.588715 
	C23.952885,136.783890 23.702250,137.979050 23.262159,140.077652 
	C32.022667,134.036896 35.684372,129.228027 34.431252,124.583038 
	C30.903025,128.346649 27.757498,131.702042 24.203520,135.588715 
M32.762611,166.783600 
	C29.678921,170.813599 24.055258,173.068069 24.071318,179.371658 
	C28.138149,176.200836 31.775208,172.661575 35.043415,168.809387 
	C35.939552,167.753143 37.242790,164.585526 32.762611,166.783600 
M190.476562,109.023834 
	C184.515320,114.995079 184.515320,114.995079 185.332031,119.253510 
	C189.315063,114.220230 195.156830,111.502495 196.839081,105.460457 
	C196.409576,105.074554 195.980087,104.688660 195.550583,104.302757 
	C194.022949,105.713127 192.495316,107.123505 190.476562,109.023834 
M170.363846,31.358458 
	C173.969543,31.929441 176.268951,29.330074 175.215759,24.089430 
	C173.586853,26.330442 171.957947,28.571457 170.363846,31.358458 
M148.130493,12.845063 
	C145.799820,14.673282 143.469147,16.501501 141.138474,18.329720 
	C141.530243,18.769739 141.922012,19.209759 142.313782,19.649778 
	C145.967361,19.182949 148.481995,17.520824 148.130493,12.845063 
M127.672165,173.953522 
	C128.133362,174.348434 128.594574,174.743332 129.055786,175.138229 
	C130.861191,172.526184 132.666580,169.914154 134.471985,167.302124 
	C133.904617,166.957336 133.337250,166.612549 132.769882,166.267761 
	C131.114258,168.650955 129.458649,171.034134 127.672165,173.953522 
M192.823196,126.851181 
	C193.391998,127.640442 193.960800,128.429703 194.529602,129.218964 
	C196.010574,127.807884 197.491531,126.396805 198.972504,124.985718 
	C198.520508,124.463097 198.068497,123.940475 197.616501,123.417854 
	C196.144150,124.408150 194.671814,125.398445 192.823196,126.851181 
M126.393364,197.766205 
	C127.232780,196.244751 128.072189,194.723297 128.911606,193.201859 
	C128.380890,192.903214 127.850174,192.604568 127.319458,192.305939 
	C125.647820,194.078415 123.976181,195.850906 121.245285,198.746552 
	C123.848236,198.396271 124.857277,198.260483 126.393364,197.766205 
z"/>
<path fill="#47704C" opacity="1.000000" stroke="none" 
	d="
M257.000000,228.000000 
	C257.000000,232.689255 257.000000,237.378510 256.723206,242.717972 
	C251.964310,247.912125 247.482162,252.456070 243.000000,257.000000 
	C238.310745,257.000000 233.621490,257.000000 228.649994,256.723083 
	C237.911835,246.964096 247.455917,237.482040 257.000000,228.000000 
z"/>
<path fill="#42423E" opacity="1.000000" stroke="none" 
	d="
M257.000000,7.583334 
	C245.765778,19.067297 234.539734,30.142941 223.286545,41.190914 
	C221.937744,42.515121 220.441391,43.689026 219.013443,44.932602 
	C218.579041,44.636448 218.144653,44.340294 217.710251,44.044144 
	C218.365265,42.649799 218.700882,40.937561 219.723999,39.909573 
	C231.905502,27.670057 244.189346,15.532396 256.723175,3.184018 
	C257.000000,4.388889 257.000000,5.777778 257.000000,7.583334 
z"/>
<path fill="#42423E" opacity="1.000000" stroke="none" 
	d="
M257.000000,87.583328 
	C245.884445,98.948692 234.774399,109.902992 223.646255,120.838875 
	C222.279327,122.182167 220.815582,123.426949 219.396698,124.717377 
	C218.954468,124.424706 218.512253,124.132042 218.070023,123.839371 
	C218.844772,122.280594 219.282272,120.386925 220.446335,119.214729 
	C232.378754,107.198730 244.429047,95.299782 256.723206,83.184074 
	C257.000000,84.388893 257.000000,85.777779 257.000000,87.583328 
z"/>
<path fill="#42423E" opacity="1.000000" stroke="none" 
	d="
M257.000000,47.583332 
	C245.884705,58.948433 234.774902,69.902435 223.647064,80.838112 
	C222.284958,82.176704 220.826355,83.417076 219.412460,84.702957 
	C218.965225,84.414658 218.517975,84.126358 218.070740,83.838066 
	C218.845520,82.279419 219.283157,80.385956 220.447144,79.213814 
	C232.379333,67.198143 244.429321,55.299477 256.723206,43.184074 
	C257.000000,44.388889 257.000000,45.777779 257.000000,47.583332 
z"/>
<path fill="#42423E" opacity="1.000000" stroke="none" 
	d="
M257.000000,67.583336 
	C245.884720,78.948433 234.774902,89.902451 223.647079,100.838127 
	C222.284973,102.176697 220.826324,103.417038 219.412430,104.702911 
	C218.965195,104.414619 218.517960,104.126328 218.070709,103.838043 
	C218.845505,102.279411 219.283142,100.385956 220.447128,99.213814 
	C232.379333,87.198151 244.429337,75.299492 256.723206,63.184082 
	C257.000000,64.388893 257.000000,65.777779 257.000000,67.583336 
z"/>
<path fill="#42423E" opacity="1.000000" stroke="none" 
	d="
M257.000000,27.583334 
	C245.884705,38.948433 234.774902,49.902443 223.647064,60.838120 
	C222.284973,62.176701 220.826355,63.417065 219.412460,64.702942 
	C218.965210,64.414642 218.517960,64.126343 218.070709,63.838039 
	C218.845520,62.279404 219.283157,60.385948 220.447144,59.213806 
	C232.379318,47.198143 244.429337,35.299480 256.723206,23.184078 
	C257.000000,24.388889 257.000000,25.777779 257.000000,27.583334 
z"/>
<path fill="#42423E" opacity="1.000000" stroke="none" 
	d="
M83.416664,257.000000 
	C95.210373,241.999435 119.273819,219.752121 124.358070,219.888901 
	C111.989899,232.451904 100.178833,244.449020 88.183884,256.723083 
	C86.611107,257.000000 85.222221,257.000000 83.416664,257.000000 
z"/>
<path fill="#42423E" opacity="1.000000" stroke="none" 
	d="
M23.416666,257.000000 
	C35.210396,241.999435 59.273849,219.752121 64.358047,219.888901 
	C51.989891,232.451889 40.178825,244.449036 28.183880,256.723083 
	C26.611111,257.000000 25.222221,257.000000 23.416666,257.000000 
z"/>
<path fill="#42423E" opacity="1.000000" stroke="none" 
	d="
M43.416664,257.000000 
	C55.210518,241.999283 79.273857,219.752090 84.358025,219.888916 
	C71.989891,232.451904 60.178833,244.449036 48.183884,256.723083 
	C46.611111,257.000000 45.222221,257.000000 43.416664,257.000000 
z"/>
<path fill="#42423E" opacity="1.000000" stroke="none" 
	d="
M3.416667,257.000000 
	C15.210352,241.999451 39.273865,219.752106 44.358047,219.888916 
	C31.989901,232.451889 20.178827,244.449005 8.183878,256.723083 
	C6.611111,257.000000 5.222222,257.000000 3.416667,257.000000 
z"/>
<path fill="#42423E" opacity="1.000000" stroke="none" 
	d="
M63.416664,257.000000 
	C75.210426,241.999374 99.273819,219.752121 104.358055,219.888901 
	C91.989891,232.451889 80.178825,244.449020 68.183884,256.723083 
	C66.611115,257.000000 65.222221,257.000000 63.416664,257.000000 
z"/>
<path fill="#42423E" opacity="1.000000" stroke="none" 
	d="
M257.000000,107.583336 
	C246.325745,118.343117 235.651489,128.686234 224.977234,139.029343 
	C224.343109,138.384399 223.708984,137.739456 223.074860,137.094528 
	C233.579956,125.270729 245.109879,114.410294 256.723175,103.184013 
	C257.000000,104.388893 257.000000,105.777779 257.000000,107.583336 
z"/>
<path fill="#42423E" opacity="1.000000" stroke="none" 
	d="
M103.416664,257.000000 
	C114.075493,245.731216 125.150986,234.462433 136.226471,223.193649 
	C136.892303,223.741745 137.558121,224.289841 138.223953,224.837936 
	C137.159744,226.380554 136.289856,228.112671 135.000000,229.435226 
	C126.171936,238.486984 117.255768,247.452805 108.183998,256.723145 
	C106.611107,257.000000 105.222221,257.000000 103.416664,257.000000 
z"/>
<path fill="#42423E" opacity="1.000000" stroke="none" 
	d="
M257.000000,227.583344 
	C247.455917,237.482040 237.911835,246.964096 228.183868,256.723083 
	C226.611115,257.000000 225.222214,257.000000 223.416656,257.000000 
	C234.148804,245.789383 245.297623,234.578766 256.723206,223.184082 
	C257.000000,224.388885 257.000000,225.777786 257.000000,227.583344 
z"/>
<path fill="#47704C" opacity="1.000000" stroke="none" 
	d="
M1.000000,18.000000 
	C1.000000,12.407914 1.000000,6.815828 1.000000,1.000000 
	C6.350975,1.000000 11.705034,1.000000 17.345669,1.276924 
	C12.088162,7.035899 6.544081,12.517949 1.000000,18.000000 
z"/>
<path fill="#42423E" opacity="1.000000" stroke="none" 
	d="
M242.583344,1.000001 
	C233.216293,10.968366 223.432587,20.936729 213.648880,30.905094 
	C212.984894,30.356091 212.320892,29.807085 211.656906,29.258081 
	C212.724213,27.720537 213.603745,26.000795 214.889740,24.675447 
	C222.417816,16.917074 230.040939,9.250938 237.816010,1.276841 
	C239.388885,1.000000 240.777786,1.000000 242.583344,1.000001 
z"/>
<path fill="#42423E" opacity="1.000000" stroke="none" 
	d="
M102.583336,1.000001 
	C96.082619,8.135924 89.165230,15.271846 82.110168,22.690086 
	C81.972504,22.972408 82.019302,22.979639 82.019302,22.979637 
	C79.102837,25.541504 76.186378,28.103371 73.269920,30.665237 
	C72.795013,30.308319 72.320107,29.951403 71.845207,29.594486 
	C73.075470,27.720562 74.052353,25.603189 75.579109,24.014139 
	C82.848106,16.448566 90.266670,9.026689 97.816002,1.276839 
	C99.388893,1.000000 100.777779,1.000000 102.583336,1.000001 
z"/>
<path fill="#42423E" opacity="1.000000" stroke="none" 
	d="
M257.000000,127.583336 
	C250.503067,134.037216 244.058456,140.132446 237.473083,146.071609 
	C235.787796,147.591553 233.657501,148.618134 231.320801,149.894989 
	C230.909958,149.918594 230.727325,149.706207 230.727325,149.706207 
	C239.300262,140.926712 247.873184,132.147217 256.723053,123.183868 
	C257.000000,124.388893 257.000000,125.777779 257.000000,127.583336 
z"/>
<path fill="#42423E" opacity="1.000000" stroke="none" 
	d="
M1.000000,238.416656 
	C8.776443,232.204269 14.007061,223.335175 22.581482,218.502777 
	C23.126350,219.088486 23.671219,219.674210 24.216087,220.259918 
	C16.661943,227.717270 9.107799,235.174622 1.276827,242.815979 
	C1.000000,241.611115 1.000000,240.222214 1.000000,238.416656 
z"/>
<path fill="#42423E" opacity="1.000000" stroke="none" 
	d="
M42.583336,1.000000 
	C35.143478,8.867373 28.570807,18.211138 18.435921,23.458460 
	C18.087370,23.093630 17.738817,22.728802 17.390265,22.363974 
	C24.137302,15.427058 30.884340,8.490144 37.815689,1.276614 
	C39.388889,1.000000 40.777779,1.000000 42.583336,1.000000 
z"/>
<path fill="#42423E" opacity="1.000000" stroke="none" 
	d="
M123.416664,257.000000 
	C130.109131,249.144714 137.525711,241.623169 146.254349,235.429886 
	C142.033646,243.996414 134.159164,249.328278 128.183990,256.723145 
	C126.611107,257.000000 125.222221,257.000000 123.416664,257.000000 
z"/>
<path fill="#42423E" opacity="1.000000" stroke="none" 
	d="
M222.583344,1.000000 
	C215.831009,8.456885 209.304169,16.635317 200.644119,22.416784 
	C200.117004,21.884245 199.589890,21.351707 199.062775,20.819168 
	C205.252518,14.397341 211.442261,7.975513 217.816010,1.276842 
	C219.388885,1.000000 220.777786,1.000000 222.583344,1.000000 
z"/>
<path fill="#42423E" opacity="1.000000" stroke="none" 
	d="
M1.000000,18.416666 
	C6.544081,12.517949 12.088162,7.035899 17.816122,1.276924 
	C19.388889,1.000000 20.777779,1.000000 22.583334,1.000000 
	C15.851186,8.210612 8.702371,15.421225 1.276778,22.815918 
	C1.000000,21.611111 1.000000,20.222221 1.000000,18.416666 
z"/>
<path fill="#42423E" opacity="1.000000" stroke="none" 
	d="
M202.583344,1.000000 
	C196.131638,7.987067 190.238022,16.103184 181.584427,21.022381 
	C181.131546,20.545357 180.678680,20.068331 180.225800,19.591307 
	C186.027954,13.578821 191.830109,7.566336 197.816132,1.276925 
	C199.388885,1.000000 200.777786,1.000000 202.583344,1.000000 
z"/>
<path fill="#42423E" opacity="1.000000" stroke="none" 
	d="
M122.583336,1.000000 
	C116.375748,7.888824 110.465492,15.596108 102.171303,20.570669 
	C101.697952,20.086334 101.224594,19.601997 100.751236,19.117662 
	C106.378235,13.263061 112.005241,7.408458 117.816116,1.276928 
	C119.388893,1.000000 120.777779,1.000000 122.583336,1.000000 
z"/>
<path fill="#42423E" opacity="1.000000" stroke="none" 
	d="
M142.583344,1.000000 
	C136.512009,7.702762 130.822311,15.319203 122.665695,20.112190 
	C122.186462,19.626448 121.707237,19.140705 121.228004,18.654963 
	C126.696091,12.954591 132.164169,7.254220 137.816132,1.276925 
	C139.388885,1.000000 140.777786,1.000000 142.583344,1.000000 
z"/>
<path fill="#42423E" opacity="1.000000" stroke="none" 
	d="
M62.583336,1.000000 
	C54.489155,6.063573 50.813324,16.768200 41.651779,21.072594 
	C41.181599,20.566631 40.711422,20.060669 40.241241,19.554707 
	C46.037960,13.554220 51.834682,7.553734 57.815701,1.276624 
	C59.388889,1.000000 60.777779,1.000000 62.583336,1.000000 
z"/>
<path fill="#42423E" opacity="1.000000" stroke="none" 
	d="
M143.416656,257.000000 
	C147.401428,252.388672 151.075638,246.918045 156.973724,244.075241 
	C157.447998,244.530807 157.922256,244.986374 158.396530,245.441925 
	C155.053680,249.110077 151.710815,252.778214 148.183990,256.723175 
	C146.611115,257.000000 145.222214,257.000000 143.416656,257.000000 
z"/>
<path fill="#42423E" opacity="1.000000" stroke="none" 
	d="
M243.416672,257.000000 
	C247.482162,252.456070 251.964310,247.912125 256.723206,243.184082 
	C257.000000,244.388885 257.000000,245.777786 256.723419,247.766937 
	C253.631226,251.244827 250.815628,254.122421 248.000000,257.000000 
	C246.611115,257.000000 245.222214,257.000000 243.416672,257.000000 
z"/>
<path fill="#42423E" opacity="1.000000" stroke="none" 
	d="
M182.583344,1.000003 
	C178.996826,5.152384 174.993652,9.304763 170.990463,13.457141 
	C170.485138,13.007546 169.979797,12.557953 169.474457,12.108359 
	C170.243378,7.269839 175.272156,5.315356 177.815613,1.276706 
	C179.388885,1.000000 180.777786,1.000000 182.583344,1.000003 
z"/>
<path fill="#42423E" opacity="1.000000" stroke="none" 
	d="
M82.583336,1.000000 
	C79.547157,4.621963 76.094322,8.243924 72.641479,11.865887 
	C72.201973,11.521477 71.762466,11.177067 71.322952,10.832657 
	C71.122154,6.410618 75.719154,4.757846 77.815048,1.277347 
	C79.388893,1.000000 80.777779,1.000000 82.583336,1.000000 
z"/>
<path fill="#42423E" opacity="1.000000" stroke="none" 
	d="
M0.999998,218.416656 
	C3.878715,215.574799 6.757435,213.149597 9.636154,210.724411 
	C10.243106,211.339813 10.850057,211.955200 11.457008,212.570602 
	C8.155940,215.924515 4.854871,219.278442 1.276901,222.816177 
	C1.000000,221.611115 1.000000,220.222214 0.999998,218.416656 
z"/>
<path fill="#47704C" opacity="1.000000" stroke="none" 
	d="
M248.491058,257.000000 
	C250.815628,254.122421 253.631226,251.244827 256.723419,248.183609 
	C257.000000,250.917358 257.000000,253.834717 257.000000,257.000000 
	C254.330002,257.000000 251.656052,257.000000 248.491058,257.000000 
z"/>
<path fill="#42423E" opacity="1.000000" stroke="none" 
	d="
M257.000000,167.583344 
	C255.132492,169.522812 253.264984,171.045609 251.279922,172.664261 
	C250.311035,168.866608 250.461777,168.610916 256.721863,163.184906 
	C257.000000,164.388885 257.000000,165.777786 257.000000,167.583344 
z"/>
<path fill="#42423E" opacity="1.000000" stroke="none" 
	d="
M257.000000,207.583344 
	C255.139160,209.526337 253.278305,211.052689 250.784088,213.098557 
	C250.623398,207.960052 253.754211,205.794998 256.721619,203.185196 
	C257.000000,204.388885 257.000000,205.777786 257.000000,207.583344 
z"/>
<path fill="#42423E" opacity="1.000000" stroke="none" 
	d="
M163.416656,257.000000 
	C165.355759,254.561798 166.849197,250.897003 172.473541,250.856720 
	C170.681778,253.294479 169.514206,254.882996 168.173309,256.735779 
	C166.611115,257.000000 165.222214,257.000000 163.416656,257.000000 
z"/>
<path fill="#42423E" opacity="1.000000" stroke="none" 
	d="
M203.416656,257.000000 
	C205.736252,254.681274 208.472504,252.362549 211.208755,250.043823 
	C211.651505,250.512848 212.094254,250.981873 212.537003,251.450912 
	C211.143326,253.121094 209.749634,254.791290 208.177979,256.730743 
	C206.611115,257.000000 205.222214,257.000000 203.416656,257.000000 
z"/>
<path fill="#313130" opacity="1.000000" stroke="none" 
	d="
M51.000000,76.999771 
	C42.501068,76.993111 34.487396,77.275543 26.508835,76.868973 
	C21.851889,76.631668 20.922335,78.467972 20.938835,82.619354 
	C21.059385,112.948250 21.000219,143.277847 20.999876,173.607224 
	C20.999819,178.773209 20.944412,183.940262 21.029930,189.104919 
	C21.171848,197.675797 24.318918,200.933121 32.880859,200.957672 
	C60.210407,201.036072 87.540527,200.945160 114.869713,201.073166 
	C117.876747,201.087250 122.289627,201.078201 123.573837,202.862427 
	C125.858170,206.036194 126.349121,210.550049 127.306999,214.570831 
	C127.436043,215.112503 126.033974,216.475525 125.147575,216.702209 
	C123.570442,217.105515 121.845444,216.988159 120.182266,216.988815 
	C90.519463,217.000443 60.856640,217.018570 31.193871,216.988235 
	C15.183954,216.971863 5.039311,206.858627 5.021276,190.731995 
	C4.968533,143.571518 5.175568,96.409935 4.892640,49.251110 
	C4.812223,35.847145 15.548762,21.323004 31.105766,22.915129 
	C36.382549,23.455162 41.767353,22.843372 47.093128,23.031580 
	C51.352722,23.182108 53.020496,21.466091 53.093655,17.171993 
	C53.192822,11.350997 56.429699,7.497416 60.796467,7.109373 
	C65.803490,6.664434 69.484970,9.466727 69.749939,14.937177 
	C70.136360,22.914770 70.089188,30.934729 69.750336,38.916393 
	C69.598320,42.497208 67.836678,45.827850 63.805023,46.672905 
	C59.513664,47.572384 56.131485,46.283230 53.547241,42.334515 
	C52.497803,40.730984 50.012009,39.313850 48.084587,39.179707 
	C42.280777,38.775795 36.429672,38.999172 30.597977,39.064178 
	C25.611649,39.119766 22.119606,41.511967 21.508915,46.527996 
	C20.949282,51.124641 20.848164,55.870831 21.393272,60.450157 
	C21.553215,61.793793 24.600517,63.773087 26.336655,63.785698 
	C35.422050,63.851688 44.511143,63.161541 53.599369,63.152428 
	C63.353615,63.142643 73.107864,63.773167 82.862968,63.799084 
	C92.618668,63.825005 102.374924,63.414497 112.132034,63.269581 
	C115.112442,63.225315 118.095993,63.466732 121.079025,63.504623 
	C124.386024,63.546627 127.694069,63.506512 131.001663,63.500156 
	C134.309341,63.493797 137.617020,63.489338 140.924683,63.476013 
	C144.394104,63.462040 147.863480,63.429142 151.332901,63.421974 
	C154.478729,63.415474 157.624603,63.433002 160.770447,63.438984 
	C164.239838,63.445576 167.709595,63.484440 171.178513,63.446579 
	C173.998215,63.415798 176.816620,63.237576 179.636154,63.221340 
	C185.881256,63.185371 192.126709,63.210144 198.826813,63.210144 
	C198.826813,56.701427 199.446396,50.820415 198.524933,45.191677 
	C198.151093,42.907970 194.628952,40.828957 192.135910,39.326038 
	C190.765594,38.499947 188.557159,39.031124 186.725891,39.008423 
	C179.272369,38.916019 179.035889,38.694263 179.000824,31.485403 
	C178.960190,23.126291 179.067795,23.022078 187.760742,23.001831 
	C206.598663,22.957954 215.975693,32.270870 215.994308,51.113541 
	C216.017029,74.110527 216.012558,97.107559 215.988510,120.104538 
	C215.981644,126.678284 215.827438,126.756630 209.524445,124.966316 
	C198.997879,121.976334 198.997757,121.976341 198.996948,111.191429 
	C198.996277,102.025955 199.009415,92.860451 198.990952,83.695015 
	C198.977463,76.995743 198.959000,76.994873 192.482086,76.995049 
	C145.488052,76.996323 98.494026,76.997993 51.000000,76.999771 
z"/>
<path fill="#313130" opacity="1.000000" stroke="none" 
	d="
M156.972900,225.000061 
	C168.580368,239.152710 192.090088,244.013718 209.999847,235.964203 
	C230.195312,226.887375 241.622116,206.273407 238.614548,184.343185 
	C238.043137,180.176620 241.539307,174.886353 246.738663,172.050079 
	C256.652679,190.465759 251.975571,219.321411 230.590225,237.587112 
	C204.888443,259.539581 167.509460,256.266479 145.452667,230.912537 
	C125.075462,207.489273 126.926971,170.501801 149.050751,148.789062 
	C172.795273,125.485703 209.677490,128.412796 226.565475,143.429489 
	C221.232300,150.642441 218.603409,151.380966 210.667831,147.895538 
	C191.696884,139.563156 167.003525,144.827087 154.863831,159.791367 
	C140.036697,178.068375 138.983643,202.183807 152.288727,220.368973 
	C153.453949,221.961578 155.037369,223.248215 156.721313,224.830383 
	C157.016083,224.983795 156.972900,225.000061 156.972900,225.000061 
z"/>
<path fill="#313130" opacity="1.000000" stroke="none" 
	d="
M183.973083,177.999695 
	C189.544952,184.791824 189.498322,184.492859 196.459045,179.223709 
	C211.444611,167.879837 226.702286,156.895447 241.850418,145.766418 
	C242.118362,145.569565 242.386642,145.334991 242.692978,145.234467 
	C245.763702,144.226761 249.178162,139.960953 251.794998,143.981934 
	C252.932373,145.729614 250.990021,150.694763 249.042877,153.026566 
	C240.630219,163.101120 231.810989,172.845749 222.920578,182.508850 
	C215.373627,190.711746 207.626022,198.737000 199.783890,206.659409 
	C191.914352,214.609497 183.934982,213.986664 177.844620,204.486099 
	C172.746567,196.533478 168.513336,188.025757 163.922592,179.749741 
	C163.523102,179.029541 163.038376,178.194565 163.064545,177.429016 
	C163.165802,174.466507 163.457993,171.510529 163.679047,168.552109 
	C166.647003,168.975906 169.992172,168.679092 172.495926,169.989700 
	C176.407654,172.037308 179.749496,175.173599 183.674545,177.916077 
	C184.016296,177.983521 183.973083,177.999695 183.973083,177.999695 
z"/>
<path fill="#313130" opacity="1.000000" stroke="none" 
	d="
M81.976105,22.995804 
	C102.439400,22.678249 122.898834,22.320307 143.358917,22.005514 
	C150.574219,21.894505 150.601257,21.918383 151.031509,14.903734 
	C151.341949,9.842451 153.952133,6.485635 158.361420,6.372674 
	C162.811310,6.258672 166.656189,8.495577 166.949570,13.044395 
	C167.534180,22.108490 167.678986,31.265852 166.972534,40.303947 
	C166.789581,42.644619 163.133026,45.633095 160.444244,46.628860 
	C156.983566,47.910496 153.371338,46.122742 151.899979,42.382641 
	C150.746231,39.449917 148.864380,38.997791 146.122665,39.006783 
	C127.464462,39.067974 108.805878,39.021786 90.147430,38.994030 
	C82.107796,38.982075 82.034470,38.895061 82.002457,30.915306 
	C81.993095,28.583055 82.008728,26.250704 82.016106,23.449020 
	C82.019302,22.979639 81.972504,22.972408 81.976105,22.995804 
z"/>
<path fill="#313130" opacity="1.000000" stroke="none" 
	d="
M39.698898,106.742912 
	C43.584042,106.161072 47.453392,105.272293 51.358135,105.071381 
	C56.828697,104.789902 62.325607,105.029694 67.811249,105.029381 
	C72.479607,105.029114 74.937157,107.284706 74.955353,112.012589 
	C74.974541,116.999329 74.924576,121.986519 74.969833,126.972923 
	C75.011665,131.582870 72.381172,133.745438 68.177521,133.856766 
	C60.703396,134.054703 53.218670,133.998398 45.741421,133.870499 
	C42.024261,133.806900 38.725643,131.773422 38.560940,128.188705 
	C38.245117,121.314980 38.985897,114.392700 39.493851,107.105911 
	C39.699394,106.721252 39.698898,106.742912 39.698898,106.742912 
z"/>
<path fill="#313130" opacity="1.000000" stroke="none" 
	d="
M44.595078,153.105118 
	C52.507576,153.053635 59.977821,152.960678 67.446083,153.044525 
	C73.046761,153.107376 74.826157,154.920425 74.950554,160.580688 
	C75.056297,165.391937 74.922394,170.207962 74.970589,175.021118 
	C75.013824,179.339081 72.629143,181.669464 68.640877,181.800812 
	C60.849674,182.057388 53.034603,182.101929 45.247921,181.782761 
	C40.852329,181.602585 38.347515,178.644348 38.133579,174.244522 
	C37.916157,169.772964 38.069614,165.284058 38.027756,160.803055 
	C37.988201,156.569000 39.758739,153.814804 44.595078,153.105118 
z"/>
<path fill="#313130" opacity="1.000000" stroke="none" 
	d="
M98.588501,105.104584 
	C106.351555,105.057404 113.672691,104.937386 120.989456,105.066193 
	C126.651917,105.165894 128.772369,107.340263 128.941986,112.992813 
	C129.071655,117.313965 128.962128,121.642189 128.965775,125.967262 
	C128.969910,130.870636 126.107483,133.553711 121.638321,133.776367 
	C114.006126,134.156631 106.339516,134.012543 98.692154,133.855484 
	C94.561966,133.770630 92.242340,131.293365 92.123734,127.181236 
	C91.970337,121.863129 92.028557,116.536804 92.093704,111.215218 
	C92.141594,107.303711 94.714630,105.758751 98.588501,105.104584 
z"/>
<path fill="#313130" opacity="1.000000" stroke="none" 
	d="
M127.256271,154.756104 
	C127.518166,158.263092 128.055222,161.779282 127.938187,165.273575 
	C127.868591,167.351364 126.675568,169.370941 126.149742,171.457535 
	C123.747765,180.989243 123.768387,180.998505 113.742645,180.997238 
	C108.930168,180.996628 104.116333,180.901733 99.305618,180.988571 
	C94.788017,181.070129 92.391479,178.743103 92.169067,174.473572 
	C91.910515,169.510162 91.686401,164.470184 92.299263,159.569992 
	C92.575722,157.359497 94.877045,153.650681 96.323540,153.619873 
	C106.360626,153.406097 116.414520,153.981079 126.857864,154.516830 
	C127.252701,154.730713 127.256264,154.756104 127.256271,154.756104 
z"/>
<path fill="#313130" opacity="1.000000" stroke="none" 
	d="
M171.483032,125.374649 
	C165.780212,127.839897 160.391815,130.039871 155.157791,132.560455 
	C149.641403,135.217010 145.444107,133.080872 145.120407,126.909904 
	C144.859039,121.926804 144.960342,116.915588 145.106979,111.922905 
	C145.235962,107.530716 147.751694,105.159660 152.096756,105.098480 
	C159.757462,104.990608 167.422699,104.975464 175.082443,105.116737 
	C179.471909,105.197708 181.600250,107.766510 181.953796,112.102776 
	C182.788010,122.334747 182.474670,122.798630 171.483032,125.374649 
z"/>
<path fill="#42423E" opacity="1.000000" stroke="none" 
	d="
M234.053040,185.690262 
	C234.944458,186.205597 236.269135,187.285126 236.142944,187.495865 
	C235.303329,188.897949 234.250717,190.211182 233.089569,191.376099 
	C218.896454,205.615158 204.692902,219.844040 190.425995,234.009003 
	C188.968826,235.455750 187.083878,236.471619 185.397461,237.687469 
	C184.847900,237.036041 184.298325,236.384628 183.748764,235.733200 
	C200.437546,219.106323 217.126343,202.479446 234.053040,185.690262 
z"/>
<path fill="#42423E" opacity="1.000000" stroke="none" 
	d="
M39.826267,106.354721 
	C39.698898,106.742912 39.699394,106.721252 39.717461,106.714172 
	C36.411949,109.383736 33.051155,112.015923 29.779261,114.754318 
	C27.926617,116.304886 26.219866,118.029762 24.447403,119.676125 
	C23.998541,119.403625 23.549679,119.131126 23.100819,118.858627 
	C23.850124,117.309227 24.258232,115.423851 25.401722,114.262611 
	C36.361538,103.132629 47.408524,92.087280 58.547230,81.136375 
	C59.752617,79.951309 61.695347,79.516228 63.296055,78.733253 
	C63.582520,79.145721 63.868980,79.558189 64.155441,79.970657 
	C62.515743,81.735550 60.877804,83.502083 59.236019,85.265030 
	C52.809219,92.166145 46.381203,99.066124 39.826267,106.354721 
z"/>
<path fill="#42423E" opacity="1.000000" stroke="none" 
	d="
M159.725204,84.774673 
	C150.497696,93.967682 141.514832,102.916420 131.984772,112.410294 
	C131.614487,106.117798 158.366669,79.413055 164.584534,79.542480 
	C162.775681,81.497635 161.372772,83.014015 159.725204,84.774673 
z"/>
<path fill="#42423E" opacity="1.000000" stroke="none" 
	d="
M131.033417,129.079071 
	C134.599655,125.233170 137.981491,121.692131 141.807831,117.685669 
	C142.597412,123.573601 116.065285,150.311569 109.126427,150.072128 
	C115.008415,144.660400 120.078827,140.061157 125.066765,135.374161 
	C127.086807,133.475983 128.926987,131.386398 131.033417,129.079071 
z"/>
<path fill="#42423E" opacity="1.000000" stroke="none" 
	d="
M85.253296,159.245850 
	C82.792816,161.586472 80.581383,163.678085 77.904816,166.209641 
	C77.697639,160.289627 100.838089,136.940613 107.790619,136.673737 
	C99.777100,144.699799 92.639725,151.848328 85.253296,159.245850 
z"/>
<path fill="#42423E" opacity="1.000000" stroke="none" 
	d="
M92.249992,92.249992 
	C87.107506,97.375641 82.215012,102.251289 76.934898,107.513229 
	C75.655823,102.040291 98.424583,79.365051 104.812019,79.603165 
	C100.360168,84.085678 96.430084,88.042839 92.249992,92.249992 
z"/>
<path fill="#42423E" opacity="1.000000" stroke="none" 
	d="
M63.934738,198.658096 
	C63.654205,197.739899 63.243347,196.448029 63.686939,195.997528 
	C71.586510,187.975174 79.585030,180.050110 87.589180,172.131332 
	C87.891716,171.832016 88.465042,171.806427 88.934685,171.645584 
	C89.469452,175.556656 71.349159,195.272385 63.934738,198.658096 
z"/>
<path fill="#42423E" opacity="1.000000" stroke="none" 
	d="
M184.008286,178.005157 
	C184.043198,177.865799 184.035141,177.655533 184.136322,177.550812 
	C192.816757,168.566345 201.503418,159.587891 210.219711,150.638275 
	C210.326340,150.528778 210.820847,150.797043 211.690994,151.052231 
	C211.286758,152.044739 211.144104,153.210815 210.490875,153.873825 
	C203.240997,161.232376 195.948273,168.550049 188.561951,175.771179 
	C187.556595,176.754028 185.976379,177.148895 184.317719,177.907837 
	C183.973083,177.999695 184.016296,177.983521 184.008286,178.005157 
z"/>
<path fill="#42423E" opacity="1.000000" stroke="none" 
	d="
M234.040787,206.036499 
	C232.847107,208.693909 232.214600,211.859894 230.354004,213.912857 
	C224.886032,219.946152 219.036423,225.650024 213.104843,231.237183 
	C211.182022,233.048340 208.544266,234.100510 206.233536,235.499863 
	C205.989548,235.149857 205.745560,234.799835 205.501572,234.449814 
	C214.812210,225.084396 224.122833,215.718964 233.722229,206.179825 
	C234.010986,206.006104 234.040787,206.036499 234.040787,206.036499 
z"/>
<path fill="#42423E" opacity="1.000000" stroke="none" 
	d="
M133.750000,90.750000 
	C128.636429,94.753021 125.811501,101.208694 118.676331,102.026512 
	C126.415543,93.840965 133.120880,84.572304 142.712479,78.469093 
	C143.244553,79.012863 143.776642,79.556633 144.308716,80.100403 
	C140.872482,83.566940 137.436234,87.033478 133.750000,90.750000 
z"/>
<path fill="#42423E" opacity="1.000000" stroke="none" 
	d="
M171.750488,87.749535 
	C175.728119,84.610085 177.927704,79.511177 183.902298,78.882347 
	C180.607254,85.692596 162.794647,102.121758 157.371140,102.292999 
	C162.581009,97.022614 167.040680,92.511147 171.750488,87.749535 
z"/>
<path fill="#42423E" opacity="1.000000" stroke="none" 
	d="
M121.484726,79.174934 
	C122.319107,79.679276 123.378113,80.767517 123.364960,80.780640 
	C116.101196,88.024445 108.782562,95.213890 101.387169,102.323448 
	C100.935059,102.758087 99.868065,102.553123 98.545387,101.999031 
	C105.782700,94.043060 112.672310,85.861145 121.484726,79.174934 
z"/>
<path fill="#42423E" opacity="1.000000" stroke="none" 
	d="
M64.729691,99.754593 
	C62.820023,101.050293 61.162434,102.100365 58.511002,103.780014 
	C60.774689,96.913795 79.409325,79.559547 85.094597,79.373184 
	C77.883713,86.592293 71.432739,93.050629 64.729691,99.754593 
z"/>
<path fill="#42423E" opacity="1.000000" stroke="none" 
	d="
M45.065250,136.341919 
	C45.451801,137.135315 45.961079,138.299103 45.632698,138.628952 
	C38.737579,145.554672 31.750944,152.389374 24.755838,159.214844 
	C24.606121,159.360931 24.145506,159.188400 22.054377,159.030045 
	C29.007612,149.876373 36.004436,142.275009 45.065250,136.341919 
z"/>
<path fill="#42423E" opacity="1.000000" stroke="none" 
	d="
M176.329041,163.172485 
	C182.330658,157.463440 188.072449,151.968018 193.904404,146.569992 
	C194.318359,146.186829 195.395172,146.519821 196.311157,146.519821 
	C193.699097,152.251404 177.557541,167.459808 172.771027,167.920609 
	C174.170212,166.019592 175.130646,164.714676 176.329041,163.172485 
z"/>
<path fill="#42423E" opacity="1.000000" stroke="none" 
	d="
M148.959473,174.963791 
	C149.435150,173.398117 149.501938,171.504135 150.452744,170.319916 
	C156.716675,162.518219 162.891617,154.568176 172.648026,150.050613 
	C173.086105,150.077148 173.266586,150.287201 173.266571,150.287201 
	C165.366501,158.406845 157.466431,166.526505 149.277740,174.820038 
	C148.989120,174.993927 148.959457,174.963791 148.959473,174.963791 
z"/>
<path fill="#42423E" opacity="1.000000" stroke="none" 
	d="
M63.786957,55.711800 
	C69.645416,50.224796 74.565399,44.159348 81.080650,39.980232 
	C80.571243,45.621979 64.976334,60.373814 59.370983,60.666290 
	C61.090015,58.725792 62.316982,57.340755 63.786957,55.711800 
z"/>
<path fill="#42423E" opacity="1.000000" stroke="none" 
	d="
M126.229218,58.241615 
	C124.278122,59.465641 122.580513,60.446949 120.882896,61.428261 
	C120.514793,60.909473 120.146698,60.390686 119.778603,59.871902 
	C126.811813,53.468639 132.171280,45.223156 140.856827,40.638561 
	C141.345901,41.128540 141.834976,41.618523 142.324051,42.108505 
	C137.043594,47.405304 131.763153,52.702103 126.229218,58.241615 
z"/>
<path fill="#42423E" opacity="1.000000" stroke="none" 
	d="
M114.749863,49.751938 
	C109.920448,53.672131 107.077728,59.643353 100.293152,60.475380 
	C106.773323,53.430939 112.204163,45.286865 120.823448,40.617523 
	C121.308647,41.096886 121.793854,41.576244 122.279060,42.055607 
	C119.852547,44.537838 117.426025,47.020073 114.749863,49.751938 
z"/>
<path fill="#42423E" opacity="1.000000" stroke="none" 
	d="
M98.936012,41.374649 
	C99.993629,41.207188 100.769737,41.156166 101.545837,41.105148 
	C101.768250,41.444988 101.990669,41.784824 102.213081,42.124664 
	C95.195885,48.543186 89.824028,56.768108 81.144081,61.361115 
	C80.807816,61.011982 80.471542,60.662846 80.135277,60.313713 
	C86.308350,54.039505 92.481422,47.765297 98.936012,41.374649 
z"/>
<path fill="#42423E" opacity="1.000000" stroke="none" 
	d="
M168.750290,50.749733 
	C172.904251,47.399525 175.314240,42.194691 181.263824,41.876373 
	C174.878235,48.781555 169.704590,56.955891 161.109451,61.337280 
	C160.639877,60.859631 160.170288,60.381985 159.700714,59.904335 
	C162.633881,56.936150 165.567062,53.967964 168.750290,50.749733 
z"/>
<path fill="#42423E" opacity="1.000000" stroke="none" 
	d="
M31.253647,93.246277 
	C28.793102,95.586914 26.581604,97.678574 23.904036,100.211052 
	C23.689018,94.028320 38.520172,79.339394 44.687901,79.615189 
	C39.986500,84.386795 35.744595,88.692047 31.253647,93.246277 
z"/>
<path fill="#42423E" opacity="1.000000" stroke="none" 
	d="
M83.251877,141.249939 
	C79.136627,144.668701 76.582176,149.692169 71.371178,150.954788 
	C70.808762,150.311447 70.246346,149.668121 69.683929,149.024796 
	C75.816841,142.577621 81.949753,136.130447 88.082664,129.683273 
	C88.893181,130.414154 89.703697,131.145035 90.514206,131.875931 
	C90.070107,136.163971 85.835342,137.955536 83.251877,141.249939 
z"/>
<path fill="#42423E" opacity="1.000000" stroke="none" 
	d="
M127.636581,154.657104 
	C127.256264,154.756104 127.252701,154.730713 127.246956,154.737396 
	C128.855637,152.300781 130.209610,149.624252 132.142395,147.466080 
	C135.469299,143.751205 139.082779,140.279755 142.736877,136.879028 
	C143.866806,135.827423 145.519043,135.337021 147.644119,135.549759 
	C147.344009,136.251328 147.228256,137.154037 146.715698,137.623825 
	C140.516724,143.305618 134.259186,148.923538 127.636581,154.657104 
z"/>
<path fill="#42423E" opacity="1.000000" stroke="none" 
	d="
M157.261108,207.240662 
	C155.016251,209.316803 153.019028,211.145493 151.021805,212.974167 
	C150.488297,212.443024 149.954773,211.911865 149.421249,211.380722 
	C153.997391,204.155380 160.889282,199.023727 167.264420,192.382034 
	C167.915802,196.585556 167.915802,196.585556 157.261108,207.240662 
z"/>
<path fill="#42423E" opacity="1.000000" stroke="none" 
	d="
M171.839600,227.665314 
	C177.325226,223.089584 180.856125,216.551712 188.151978,214.768463 
	C182.878281,221.468964 177.456192,227.946213 170.652344,232.940247 
	C170.125275,232.467545 169.598206,231.994843 169.071136,231.522141 
	C169.915771,230.315918 170.760422,229.109711 171.839600,227.665314 
z"/>
<path fill="#42423E" opacity="1.000000" stroke="none" 
	d="
M195.170105,89.200729 
	C189.669449,94.114967 185.778488,100.434837 179.264664,103.606148 
	C178.764404,103.089935 178.264145,102.573715 177.763885,102.057495 
	C183.597382,96.105743 189.430862,90.153984 195.264343,84.202232 
	C195.723389,84.449242 196.182434,84.696251 196.641464,84.943260 
	C196.225021,86.275681 195.808563,87.608101 195.170105,89.200729 
z"/>
<path fill="#42423E" opacity="1.000000" stroke="none" 
	d="
M157.008011,225.005402 
	C160.807251,220.376770 164.519928,215.644180 168.463608,211.112640 
	C170.307053,208.994385 172.597061,207.264771 175.295166,204.801682 
	C175.516525,209.834473 163.511261,222.508163 157.317673,224.908539 
	C156.972900,225.000061 157.016083,224.983795 157.008011,225.005402 
z"/>
<path fill="#42423E" opacity="1.000000" stroke="none" 
	d="
M33.760948,45.740093 
	C36.112858,43.909050 38.213432,42.329105 40.314007,40.749161 
	C40.589531,41.097286 40.865059,41.445408 41.140583,41.793533 
	C35.206158,47.380859 29.271730,52.968189 23.365223,58.529228 
	C24.282307,52.741268 30.238773,50.332111 33.760948,45.740093 
z"/>
<path fill="#42423E" opacity="1.000000" stroke="none" 
	d="
M152.757507,191.744339 
	C150.497772,193.882248 148.486465,195.771606 146.215668,197.904709 
	C145.466202,193.397873 155.256653,182.319031 161.771179,180.218719 
	C160.508057,185.761383 155.798492,187.939087 152.757507,191.744339 
z"/>
<path fill="#42423E" opacity="1.000000" stroke="none" 
	d="
M195.619202,45.347534 
	C195.983597,45.550037 196.217575,45.675594 196.207901,45.778183 
	C195.766998,50.454494 184.928894,60.518349 178.557343,60.515923 
	C184.800919,54.852146 190.088013,50.056011 195.619202,45.347534 
z"/>
<path fill="#42423E" opacity="1.000000" stroke="none" 
	d="
M118.011887,186.456848 
	C112.836746,190.540375 109.937386,197.113922 102.211182,198.995926 
	C107.332222,193.438599 111.721596,188.589691 116.256668,183.881104 
	C116.730530,183.389099 118.066444,183.727386 119.002396,183.680435 
	C118.742638,184.530472 118.482880,185.380493 118.011887,186.456848 
z"/>
<path fill="#42423E" opacity="1.000000" stroke="none" 
	d="
M87.715927,196.715149 
	C86.088707,197.625381 84.716721,198.302948 82.807457,199.245850 
	C84.434204,193.500061 94.905518,183.913651 100.726074,183.657318 
	C95.923851,188.485992 91.947502,192.484238 87.715927,196.715149 
z"/>
<path fill="#42423E" opacity="1.000000" stroke="none" 
	d="
M48.757248,190.743591 
	C51.717293,188.190536 54.427605,185.887375 57.137917,183.584213 
	C57.445042,183.968781 57.752171,184.353348 58.059296,184.737915 
	C56.040565,190.117218 46.838097,198.230774 41.753750,198.137360 
	C44.322620,195.420105 46.415066,193.206772 48.757248,190.743591 
z"/>
<path fill="#42423E" opacity="1.000000" stroke="none" 
	d="
M56.757248,142.743591 
	C59.717289,140.190552 62.427589,137.887375 65.137894,135.584213 
	C65.445030,135.968781 65.752159,136.353363 66.059296,136.737930 
	C64.040489,142.117294 54.838089,150.230789 49.753773,150.137360 
	C52.322620,147.420105 54.415062,145.206772 56.757248,142.743591 
z"/>
<path fill="#42423E" opacity="1.000000" stroke="none" 
	d="
M35.591232,183.933090 
	C36.957642,183.172913 38.093212,182.630753 39.228783,182.088608 
	C39.520294,182.527786 39.811810,182.966965 40.103321,183.406143 
	C36.235592,188.706558 31.905642,193.529007 25.543226,196.344421 
	C27.327198,191.048950 31.923185,188.061096 35.591232,183.933090 
z"/>
<path fill="#42423E" opacity="1.000000" stroke="none" 
	d="
M45.208633,59.176643 
	C43.546062,60.026844 42.142464,60.652683 40.738865,61.278522 
	C40.393684,60.790108 40.048500,60.301689 39.703316,59.813274 
	C44.301292,55.350616 48.899269,50.887959 53.497246,46.425297 
	C54.093262,46.974159 54.689274,47.523026 55.285290,48.071888 
	C53.128372,52.567898 48.727676,55.315758 45.208633,59.176643 
z"/>
<path fill="#42423E" opacity="1.000000" stroke="none" 
	d="
M148.737701,55.763809 
	C146.072601,57.918999 143.656952,59.825169 141.241302,61.731339 
	C140.970169,61.348339 140.699036,60.965340 140.427902,60.582340 
	C142.740463,55.377331 150.569031,48.387245 155.836014,48.244793 
	C153.045547,51.206841 151.016342,53.360813 148.737701,55.763809 
z"/>
<path fill="#42423E" opacity="1.000000" stroke="none" 
	d="
M87.877579,111.932991 
	C88.429443,112.866829 89.364777,114.359451 88.972290,114.916451 
	C86.048340,119.066010 82.861244,123.030159 79.756691,127.052460 
	C78.935524,126.285912 78.114357,125.519371 77.293182,124.752823 
	C78.384125,118.777145 84.094772,116.215744 87.877579,111.932991 
z"/>
<path fill="#42423E" opacity="1.000000" stroke="none" 
	d="
M24.407745,135.323059 
	C27.757498,131.702042 30.903025,128.346649 34.431252,124.583038 
	C35.684372,129.228027 32.022667,134.036896 23.262159,140.077652 
	C23.702250,137.979050 23.952885,136.783890 24.407745,135.323059 
z"/>
<path fill="#42423E" opacity="1.000000" stroke="none" 
	d="
M32.980736,166.588959 
	C37.242790,164.585526 35.939552,167.753143 35.043415,168.809387 
	C31.775208,172.661575 28.138149,176.200836 24.071318,179.371658 
	C24.055258,173.068069 29.678921,170.813599 32.980736,166.588959 
z"/>
<path fill="#42423E" opacity="1.000000" stroke="none" 
	d="
M190.722122,108.778854 
	C192.495316,107.123505 194.022949,105.713127 195.550583,104.302757 
	C195.980087,104.688660 196.409576,105.074554 196.839081,105.460457 
	C195.156830,111.502495 189.315063,114.220230 185.332031,119.253510 
	C184.515320,114.995079 184.515320,114.995079 190.722122,108.778854 
z"/>
<path fill="#42423E" opacity="1.000000" stroke="none" 
	d="
M165.977295,133.981812 
	C169.003159,131.226929 172.029037,128.472046 175.054916,125.717163 
	C175.559769,126.320236 176.064636,126.923302 176.569504,127.526367 
	C174.131897,130.730255 171.418900,133.583450 166.400787,134.007477 
	C166.006256,134.011200 165.977295,133.981812 165.977295,133.981812 
z"/>
<path fill="#42423E" opacity="1.000000" stroke="none" 
	d="
M170.346436,31.085464 
	C171.957947,28.571457 173.586853,26.330442 175.215759,24.089430 
	C176.268951,29.330074 173.969543,31.929441 170.346436,31.085464 
z"/>
<path fill="#42423E" opacity="1.000000" stroke="none" 
	d="
M148.300903,13.026749 
	C148.481995,17.520824 145.967361,19.182949 142.313782,19.649778 
	C141.922012,19.209759 141.530243,18.769739 141.138474,18.329720 
	C143.469147,16.501501 145.799820,14.673282 148.300903,13.026749 
z"/>
<path fill="#42423E" opacity="1.000000" stroke="none" 
	d="
M127.737595,173.685425 
	C129.458649,171.034134 131.114258,168.650955 132.769882,166.267761 
	C133.337250,166.612549 133.904617,166.957336 134.471985,167.302124 
	C132.666580,169.914154 130.861191,172.526184 129.055786,175.138229 
	C128.594574,174.743332 128.133362,174.348434 127.737595,173.685425 
z"/>
<path fill="#42423E" opacity="1.000000" stroke="none" 
	d="
M193.011337,126.619965 
	C194.671814,125.398445 196.144150,124.408150 197.616501,123.417854 
	C198.068497,123.940475 198.520508,124.463097 198.972504,124.985718 
	C197.491531,126.396805 196.010574,127.807884 194.529602,129.218964 
	C193.960800,128.429703 193.391998,127.640442 193.011337,126.619965 
z"/>
<path fill="#42423E" opacity="1.000000" stroke="none" 
	d="
M126.129837,197.945450 
	C124.857277,198.260483 123.848236,198.396271 121.245285,198.746552 
	C123.976181,195.850906 125.647820,194.078415 127.319458,192.305939 
	C127.850174,192.604568 128.380890,192.903214 128.911606,193.201859 
	C128.072189,194.723297 127.232780,196.244751 126.129837,197.945450 
z"/>
<path fill="#42423E" opacity="1.000000" stroke="none" 
	d="
M231.001099,150.024933 
	C230.589111,150.384857 230.085968,150.638458 229.294952,150.952072 
	C229.007095,151.012085 228.976471,150.980957 228.976471,150.980957 
	C229.408920,150.653625 229.841385,150.326294 230.500580,149.852585 
	C230.727325,149.706207 230.909958,149.918594 231.001099,150.024933 
z"/>
<path fill="#42423E" opacity="1.000000" stroke="none" 
	d="
M172.996155,149.971878 
	C173.067886,149.963165 173.229584,150.059738 173.328918,150.221741 
	C173.266586,150.287201 173.086105,150.077148 172.996155,149.971878 
z"/>
<path fill="#42423E" opacity="1.000000" stroke="none" 
	d="
M233.996063,205.991302 
	C233.981155,205.976501 234.081284,206.003067 234.061035,206.019775 
	C234.040787,206.036499 234.010986,206.006104 233.996063,205.991302 
z"/>
<path fill="#42423E" opacity="1.000000" stroke="none" 
	d="
M149.003937,175.008591 
	C149.018753,175.023254 148.918900,174.997055 148.939178,174.980423 
	C148.959457,174.963791 148.989120,174.993927 149.003937,175.008591 
z"/>
<path fill="#42423E" opacity="1.000000" stroke="none" 
	d="
M229.022842,151.027527 
	C229.038589,151.042953 228.938278,151.014587 228.957367,150.997772 
	C228.976471,150.980957 229.007095,151.012085 229.022842,151.027527 
z"/>
<path fill="#42423E" opacity="1.000000" stroke="none" 
	d="
M166.021118,134.025940 
	C166.035980,134.040695 165.938187,134.014984 165.957733,133.998398 
	C165.977295,133.981812 166.006256,134.011200 166.021118,134.025940 
z"/>
</svg>